<?xml version="1.0" encoding="UTF-8" standalone="no"?><!DOCTYPE svg PUBLIC "-//W3C//DTD SVG 1.1//EN" "http://www.w3.org/Graphics/SVG/1.1/DTD/svg11.dtd"><svg width="1736px" height="452px" viewBox="0 0 1736 452" version="1.1" xmlns="http://www.w3.org/2000/svg" xmlns:xlink="http://www.w3.org/1999/xlink" xml:space="preserve" xmlns:serif="http://www.serif.com/" style="fill-rule:evenodd;clip-rule:evenodd;stroke-linejoin:round;stroke-miterlimit:2;"><g><path d="M321.875,176.553c26.503,-16.088 61.022,-7.644 77.091,18.859c16.088,26.503 7.644,61.022 -18.859,77.092c-0.707,0.427 -1.413,0.837 -2.12,1.227l-292.39,168.374c-26.503,16.088 -61.023,7.644 -77.11,-18.859c-16.088,-26.503 -7.644,-61.022 18.859,-77.11c0.706,-0.428 1.413,-0.837 2.12,-1.228l292.409,-168.355Z" style="fill:#81c995;fill-rule:nonzero;"/><path d="M111.784,56.48c0.13,-30.93 -24.848,-56.131 -55.778,-56.261c-3.98,-0.019 -7.941,0.39 -11.847,1.209c-26.206,6.435 -44.525,30.092 -44.153,57.098l-0,334.423l111.666,2.027l0.112,-338.496Z" style="fill:#34a853;fill-rule:nonzero;"/><path d="M323.139,273.936c27.024,14.004 60.279,5.04 76.608,-20.663c15.698,-26.411 7.012,-60.558 -19.398,-76.255c-0.205,-0.112 -0.391,-0.223 -0.595,-0.354l-294.343,-168.671c-26.206,-15.828 -60.297,-7.421 -76.143,18.785c-0.391,0.651 -0.781,1.32 -1.153,1.99c-15.549,26.614 -6.584,60.817 20.03,76.384c0.186,0.112 0.372,0.205 0.558,0.317l294.436,168.467Z" style="fill:#5bb974;fill-rule:nonzero;"/><path d="M377.82,274.326l-266.129,148.66l-0,-127.699l211.169,-117.748c27.991,-15.512 63.273,-5.394 78.784,22.616c1.451,2.603 2.679,5.319 3.702,8.109c7.923,25.759 -3.646,53.527 -27.526,66.062Z" style="fill:#81c995;fill-rule:nonzero;"/><circle cx="55.95" cy="395.739" r="55.833" style="fill:#1e8e3e;"/></g><g><path d="M622.637,135.459c-0,19.178 -5.69,34.456 -17.068,45.835c-12.786,13.552 -29.598,20.328 -50.438,20.328c-19.945,-0 -36.821,-6.904 -50.629,-20.712c-13.808,-13.808 -20.712,-30.812 -20.712,-51.013c-0,-20.2 6.904,-37.205 20.712,-51.012c13.808,-13.808 30.684,-20.712 50.629,-20.712c10.1,-0 19.625,1.789 28.575,5.369c8.95,3.58 16.301,8.63 22.054,15.151l-12.657,12.657c-4.219,-5.114 -9.685,-9.109 -16.397,-11.986c-6.712,-2.877 -13.904,-4.315 -21.575,-4.315c-14.959,-0 -27.616,5.178 -37.972,15.534c-10.228,10.484 -15.342,23.589 -15.342,39.314c0,15.726 5.114,28.831 15.342,39.315c10.356,10.356 23.013,15.534 37.972,15.534c13.68,-0 25.059,-3.836 34.136,-11.507c9.078,-7.671 14.32,-18.219 15.726,-31.643l-49.862,-0l0,-16.493l66.547,-0c0.639,3.58 0.959,7.032 0.959,10.356Z" style="fill-rule:nonzero;"/><path d="M634.719,151.568c-0,-14.447 4.538,-26.401 13.616,-35.862c9.205,-9.461 20.776,-14.192 34.712,-14.192c13.935,0 25.442,4.731 34.519,14.192c9.206,9.461 13.808,21.415 13.808,35.862c0,14.575 -4.602,26.529 -13.808,35.862c-9.077,9.461 -20.584,14.192 -34.519,14.192c-13.936,-0 -25.507,-4.731 -34.712,-14.192c-9.078,-9.461 -13.616,-21.415 -13.616,-35.862Zm17.643,0c0,10.1 2.941,18.283 8.822,24.548c5.881,6.264 13.169,9.397 21.863,9.397c8.693,-0 15.981,-3.133 21.862,-9.397c5.881,-6.265 8.822,-14.448 8.822,-24.548c-0,-9.972 -2.941,-18.091 -8.822,-24.356c-6.009,-6.392 -13.296,-9.588 -21.862,-9.588c-8.567,-0 -15.854,3.196 -21.863,9.588c-5.881,6.265 -8.822,14.384 -8.822,24.356Z" style="fill-rule:nonzero;"/><path d="M742.114,151.568c-0,-14.447 4.539,-26.401 13.616,-35.862c9.205,-9.461 20.776,-14.192 34.712,-14.192c13.936,0 25.442,4.731 34.52,14.192c9.205,9.461 13.808,21.415 13.808,35.862c-0,14.575 -4.603,26.529 -13.808,35.862c-9.078,9.461 -20.584,14.192 -34.52,14.192c-13.936,-0 -25.507,-4.731 -34.712,-14.192c-9.077,-9.461 -13.616,-21.415 -13.616,-35.862Zm17.643,0c0,10.1 2.941,18.283 8.822,24.548c5.881,6.264 13.169,9.397 21.863,9.397c8.694,-0 15.981,-3.133 21.862,-9.397c5.882,-6.265 8.822,-14.448 8.822,-24.548c0,-9.972 -2.94,-18.091 -8.822,-24.356c-6.009,-6.392 -13.296,-9.588 -21.862,-9.588c-8.566,-0 -15.854,3.196 -21.863,9.588c-5.881,6.265 -8.822,14.384 -8.822,24.356Z" style="fill-rule:nonzero;"/><path d="M897.07,185.513c8.694,-0 15.79,-3.133 21.287,-9.397c5.754,-6.265 8.63,-14.448 8.63,-24.548c0,-9.844 -2.876,-17.963 -8.63,-24.356c-5.625,-6.392 -12.721,-9.588 -21.287,-9.588c-8.438,-0 -15.534,3.196 -21.287,9.588c-5.754,6.393 -8.63,14.512 -8.63,24.356c-0,9.973 2.876,18.091 8.63,24.356c5.753,6.392 12.849,9.589 21.287,9.589Zm-0.575,57.533c-5.242,-0 -10.165,-0.671 -14.767,-2.014c-4.603,-1.342 -8.79,-3.228 -12.562,-5.657c-3.771,-2.429 -6.999,-5.306 -9.684,-8.63c-2.685,-3.324 -4.731,-7.032 -6.137,-11.123l16.684,-6.904c1.918,5.497 5.242,9.908 9.973,13.232c4.73,3.325 10.228,4.987 16.493,4.987c9.589,-0 17.068,-2.877 22.438,-8.63c5.369,-5.754 8.054,-13.681 8.054,-23.781l0,-9.013l-0.767,-0c-3.324,4.986 -7.831,8.917 -13.52,11.794c-5.69,2.877 -11.858,4.315 -18.507,4.315c-12.273,-0 -22.821,-4.794 -31.643,-14.383c-8.694,-9.845 -13.041,-21.735 -13.041,-35.671c0,-13.936 4.347,-25.762 13.041,-35.479c8.822,-9.716 19.37,-14.575 31.643,-14.575c6.649,0 12.817,1.439 18.507,4.315c5.689,2.877 10.196,6.808 13.52,11.795l0.767,-0l0,-13.041l16.877,-0l-0,89.943c-0,15.087 -4.283,26.913 -12.849,35.479c-8.694,8.694 -20.201,13.041 -34.52,13.041Z" style="fill-rule:nonzero;"/><rect x="965.343" y="61.241" width="17.644" height="137.313" style="fill-rule:nonzero;"/><path d="M1045.7,201.622c-13.808,-0 -25.186,-4.731 -34.136,-14.192c-8.95,-9.461 -13.424,-21.415 -13.424,-35.862c-0,-14.319 4.347,-26.241 13.04,-35.766c8.694,-9.525 19.817,-14.288 33.37,-14.288c13.936,0 25.027,4.507 33.273,13.521c8.247,9.013 12.37,21.638 12.37,37.876l-0.192,1.917l-73.834,0c0.255,9.206 3.324,16.621 9.205,22.246c5.881,5.626 12.913,8.439 21.096,8.439c11.25,-0 20.072,-5.626 26.465,-16.877l15.726,7.671c-4.22,7.927 -10.069,14.128 -17.548,18.603c-7.479,4.475 -15.95,6.712 -25.411,6.712Zm-28.191,-61.369l53.89,0c-0.512,-6.52 -3.165,-11.922 -7.959,-16.205c-4.795,-4.283 -11.219,-6.424 -19.274,-6.424c-6.648,-0 -12.369,2.045 -17.164,6.136c-4.794,4.092 -7.959,9.589 -9.493,16.493Z" style="fill-rule:nonzero;"/><path d="M1151.56,198.554l0,-137.313l42,-0c20.967,-0 37.812,6.329 50.533,18.986c12.721,12.657 19.082,29.214 19.082,49.67c-0,20.584 -6.361,37.173 -19.082,49.766c-12.721,12.594 -29.566,18.891 -50.533,18.891l-42,-0Zm17.644,-120.437l-0,103.56l24.356,0c15.981,0 28.575,-4.571 37.78,-13.712c9.205,-9.141 13.808,-21.831 13.808,-38.068c-0,-16.109 -4.603,-28.766 -13.808,-37.972c-9.205,-9.205 -21.799,-13.808 -37.78,-13.808l-24.356,0Z" style="fill-rule:nonzero;"/><path d="M1303.83,72.172c-0,3.452 -1.215,6.393 -3.644,8.822c-2.429,2.429 -5.37,3.644 -8.822,3.644c-3.452,-0 -6.392,-1.215 -8.822,-3.644c-2.429,-2.429 -3.643,-5.37 -3.643,-8.822c-0,-3.452 1.214,-6.392 3.643,-8.821c2.43,-2.43 5.37,-3.644 8.822,-3.644c3.452,-0 6.393,1.214 8.822,3.644c2.429,2.429 3.644,5.369 3.644,8.821Zm-3.644,32.411l-0,93.971l-17.644,-0l0,-93.971l17.644,-0Z" style="fill-rule:nonzero;"/><path d="M1395.12,172.472c-0,8.182 -3.58,15.086 -10.74,20.712c-7.16,5.625 -16.173,8.438 -27.04,8.438c-9.462,-0 -17.772,-2.461 -24.932,-7.383c-7.159,-4.923 -12.273,-11.411 -15.342,-19.466l15.726,-6.712c2.301,5.625 5.657,10.004 10.068,13.137c4.411,3.132 9.238,4.698 14.48,4.698c5.625,0 10.324,-1.214 14.095,-3.644c3.772,-2.429 5.658,-5.305 5.658,-8.63c-0,-6.009 -4.603,-10.419 -13.808,-13.232l-16.11,-4.027c-18.282,-4.603 -27.424,-13.425 -27.424,-26.466c0,-8.566 3.484,-15.438 10.452,-20.616c6.968,-5.178 15.886,-7.767 26.753,-7.767c8.31,0 15.822,1.982 22.534,5.945c6.712,3.964 11.411,9.27 14.095,15.918l-15.725,6.52c-1.79,-3.963 -4.699,-7.064 -8.726,-9.301c-4.028,-2.237 -8.534,-3.356 -13.52,-3.356c-4.603,-0 -8.726,1.151 -12.37,3.452c-3.644,2.301 -5.466,5.114 -5.466,8.438c0,5.37 5.05,9.205 15.151,11.507l14.191,3.644c18.666,4.602 28,13.999 28,28.191Z" style="fill-rule:nonzero;"/><path d="M1455.53,185.513c8.439,-0 15.534,-3.197 21.288,-9.589c5.753,-6.265 8.63,-14.383 8.63,-24.356c-0,-9.844 -2.877,-17.963 -8.63,-24.356c-5.754,-6.392 -12.849,-9.588 -21.288,-9.588c-8.566,-0 -15.725,3.196 -21.479,9.588c-5.625,6.393 -8.438,14.512 -8.438,24.356c0,9.973 2.813,18.155 8.438,24.548c5.754,6.264 12.913,9.397 21.479,9.397Zm2.877,16.109c-6.904,-0 -13.201,-1.47 -18.89,-4.411c-5.689,-2.94 -10.068,-6.84 -13.137,-11.698l-0.767,-0l0.767,13.041l0,41.423l-17.643,0l-0,-135.394l16.876,-0l0,13.041l0.767,-0c3.069,-4.859 7.448,-8.758 13.137,-11.699c5.689,-2.94 11.986,-4.411 18.89,-4.411c12.402,0 22.886,4.859 31.452,14.575c8.821,9.845 13.232,21.671 13.232,35.479c0,13.936 -4.411,25.762 -13.232,35.479c-8.566,9.717 -19.05,14.575 -31.452,14.575Z" style="fill-rule:nonzero;"/><rect x="1517.28" y="61.241" width="17.644" height="137.313" style="fill-rule:nonzero;"/><path d="M1568.29,169.787c-0,4.603 1.949,8.438 5.849,11.507c3.899,3.068 8.47,4.602 13.712,4.602c7.415,0 14.032,-2.749 19.849,-8.246c5.817,-5.498 8.726,-11.954 8.726,-19.37c-5.498,-4.347 -13.169,-6.52 -23.014,-6.52c-7.159,-0 -13.136,1.726 -17.931,5.178c-4.794,3.452 -7.191,7.735 -7.191,12.849Zm22.821,-68.273c13.041,0 23.333,3.484 30.876,10.452c7.543,6.968 11.315,16.525 11.315,28.671l0,57.917l-16.876,-0l-0,-13.041l-0.767,-0c-7.288,10.739 -17.005,16.109 -29.151,16.109c-10.356,-0 -19.018,-3.068 -25.985,-9.205c-6.968,-6.137 -10.452,-13.808 -10.452,-23.014c-0,-9.716 3.675,-17.451 11.027,-23.205c7.351,-5.753 17.164,-8.63 29.438,-8.63c10.484,0 19.114,1.918 25.89,5.754l-0,-4.028c-0,-6.137 -2.43,-11.346 -7.288,-15.629c-4.858,-4.284 -10.548,-6.425 -17.068,-6.425c-9.845,-0 -17.644,4.155 -23.397,12.465l-15.534,-9.78c8.566,-12.274 21.223,-18.411 37.972,-18.411Z" style="fill-rule:nonzero;"/><path d="M1735.33,104.583l-58.876,135.394l-18.219,0l21.863,-47.369l-38.739,-88.025l19.177,-0l28,67.505l0.383,0l27.233,-67.505l19.178,-0Z" style="fill-rule:nonzero;"/><path d="M575.459,366.55l12.85,16.877l-13.233,9.972l-9.397,-12.465c-9.333,8.31 -19.945,12.465 -31.835,12.465c-13.936,0 -25.762,-4.666 -35.479,-13.999c-9.717,-9.334 -14.575,-20.84 -14.575,-34.52c-0,-8.055 2.141,-15.694 6.424,-22.918c4.284,-7.223 10.069,-13.073 17.356,-17.547c-6.648,-8.566 -9.972,-16.174 -9.972,-22.822c-0,-8.694 3.26,-16.141 9.781,-22.342c6.52,-6.201 14.319,-9.301 23.396,-9.301c7.288,-0 13.617,2.077 18.986,6.233c5.37,4.155 9.27,9.812 11.699,16.972l-15.151,8.055c-3.58,-9.589 -8.757,-14.384 -15.534,-14.384c-4.474,0 -8.15,1.343 -11.027,4.028c-2.876,2.684 -4.315,6.264 -4.315,10.739c0,4.347 1.47,8.438 4.411,12.274l45.451,59.451l12.274,-20.52l13.808,8.438l-15.918,25.314Zm-75.56,-21.67c0,9.205 3.26,16.908 9.781,23.109c6.52,6.201 14.575,9.301 24.164,9.301c9.077,-0 16.429,-3.068 22.054,-9.205l-38.547,-50.821c-5.37,2.94 -9.621,6.904 -12.753,11.89c-3.133,4.986 -4.699,10.228 -4.699,15.726Z" style="fill-rule:nonzero;"/><path d="M706.443,390.331l-18.41,-0l-48.328,-137.313l19.561,0l37.589,111.423l0.767,-0l39.122,-111.423l19.561,0l-49.862,137.313Z" style="fill-rule:nonzero;"/><path d="M788.332,263.95c0,3.452 -1.214,6.392 -3.643,8.821c-2.43,2.43 -5.37,3.644 -8.822,3.644c-3.452,0 -6.393,-1.214 -8.822,-3.644c-2.429,-2.429 -3.644,-5.369 -3.644,-8.821c0,-3.452 1.215,-6.393 3.644,-8.822c2.429,-2.429 5.37,-3.644 8.822,-3.644c3.452,0 6.392,1.215 8.822,3.644c2.429,2.429 3.643,5.37 3.643,8.822Zm-3.643,32.41l-0,93.971l-17.644,-0l0,-93.971l17.644,-0Z" style="fill-rule:nonzero;"/><path d="M848.934,377.29c8.694,-0 15.79,-3.132 21.287,-9.397c5.754,-6.265 8.63,-14.447 8.63,-24.548c0,-9.844 -2.876,-17.963 -8.63,-24.355c-5.625,-6.393 -12.721,-9.589 -21.287,-9.589c-8.438,-0 -15.534,3.196 -21.287,9.589c-5.754,6.392 -8.63,14.511 -8.63,24.355c-0,9.973 2.876,18.091 8.63,24.356c5.753,6.393 12.849,9.589 21.287,9.589Zm-2.877,16.109c-12.274,0 -22.821,-4.858 -31.643,-14.575c-8.694,-9.844 -13.041,-21.671 -13.041,-35.479c0,-13.808 4.347,-25.634 13.041,-35.478c8.822,-9.717 19.369,-14.575 31.643,-14.575c6.904,-0 13.201,1.47 18.89,4.41c5.69,2.941 10.069,6.84 13.137,11.699l0.767,-0l-0.767,-13.041l0,-43.342l17.644,0l-0,137.313l-16.877,-0l0,-13.041l-0.767,-0c-3.068,4.858 -7.447,8.758 -13.137,11.698c-5.689,2.941 -11.986,4.411 -18.89,4.411Z" style="fill-rule:nonzero;"/><path d="M958.439,393.399c-13.808,0 -25.187,-4.73 -34.137,-14.191c-8.949,-9.461 -13.424,-21.415 -13.424,-35.863c-0,-14.319 4.347,-26.241 13.041,-35.766c8.694,-9.525 19.817,-14.287 33.369,-14.287c13.936,-0 25.027,4.506 33.273,13.52c8.247,9.013 12.37,21.639 12.37,37.876l-0.192,1.918l-73.834,-0c0.256,9.205 3.324,16.62 9.205,22.246c5.882,5.625 12.913,8.438 21.096,8.438c11.251,-0 20.073,-5.625 26.465,-16.876l15.726,7.671c-4.219,7.926 -10.068,14.127 -17.548,18.602c-7.479,4.475 -15.949,6.712 -25.41,6.712Zm-28.192,-61.368l53.89,-0c-0.512,-6.521 -3.164,-11.923 -7.959,-16.206c-4.794,-4.283 -11.219,-6.424 -19.273,-6.424c-6.649,-0 -12.37,2.045 -17.165,6.137c-4.794,4.091 -7.958,9.589 -9.493,16.493Z" style="fill-rule:nonzero;"/><path d="M1014.63,343.345c0,-14.447 4.539,-26.401 13.617,-35.862c9.205,-9.461 20.776,-14.191 34.711,-14.191c13.936,-0 25.443,4.73 34.52,14.191c9.206,9.461 13.808,21.415 13.808,35.862c0,14.575 -4.602,26.53 -13.808,35.863c-9.077,9.461 -20.584,14.191 -34.52,14.191c-13.935,0 -25.506,-4.73 -34.711,-14.191c-9.078,-9.461 -13.617,-21.415 -13.617,-35.863Zm17.644,0c-0,10.101 2.941,18.283 8.822,24.548c5.881,6.265 13.168,9.397 21.862,9.397c8.694,-0 15.982,-3.132 21.863,-9.397c5.881,-6.265 8.822,-14.447 8.822,-24.548c-0,-9.972 -2.941,-18.091 -8.822,-24.355c-6.009,-6.393 -13.297,-9.589 -21.863,-9.589c-8.566,-0 -15.853,3.196 -21.862,9.589c-5.881,6.264 -8.822,14.383 -8.822,24.355Z" style="fill-rule:nonzero;"/><path d="M1253.01,353.126c-0,11.507 -4.283,21.096 -12.849,28.767c-8.439,7.671 -18.922,11.506 -31.452,11.506c-9.844,0 -18.73,-2.94 -26.657,-8.821c-8.055,-6.137 -13.488,-14.128 -16.301,-23.973l16.109,-6.712c2.046,7.288 5.402,12.881 10.069,16.781c4.666,3.899 10.26,5.849 16.78,5.849c7.16,-0 13.361,-2.238 18.603,-6.712c5.114,-4.603 7.671,-10.165 7.671,-16.685c-0,-6.52 -2.685,-12.018 -8.055,-16.493c-5.242,-4.475 -11.571,-6.712 -18.986,-6.712l-11.315,-0l0,-16.493l9.973,0c7.031,0 12.785,-1.95 17.26,-5.849c4.474,-3.9 6.712,-8.982 6.712,-15.246c-0,-5.754 -2.11,-10.42 -6.329,-14c-4.219,-3.58 -9.781,-5.37 -16.685,-5.37c-11.123,0 -18.73,5.69 -22.821,17.068l-16.301,-6.904c2.94,-8.054 7.863,-14.575 14.767,-19.561c6.904,-4.986 15.022,-7.479 24.355,-7.479c11.635,-0 21.416,3.452 29.342,10.356c7.799,6.648 11.699,15.278 11.699,25.89c-0,12.657 -5.881,22.054 -17.644,28.191l0,0.767c6.904,2.941 12.306,7.224 16.205,12.849c3.9,5.626 5.85,11.954 5.85,18.986Z" style="fill-rule:nonzero;"/><path d="M1317.25,307.099c10.612,0 20.073,4.22 28.383,12.658c8.438,8.31 12.657,18.219 12.657,29.725c0,11.763 -4.474,22.055 -13.424,30.876c-9.077,8.694 -19.561,13.041 -31.451,13.041c-12.658,0 -23.333,-4.347 -32.027,-13.041c-8.694,-8.693 -13.041,-18.986 -13.041,-30.876c-0,-10.611 4.283,-22.693 12.849,-36.246l38.164,-57.149l14.191,9.78l-32.41,44.876l0.383,0.384c3.964,-2.685 9.206,-4.028 15.726,-4.028Zm-31.068,42.575c0,7.543 2.621,13.936 7.863,19.178c5.242,5.114 11.698,7.671 19.37,7.671c7.671,-0 14.063,-2.557 19.177,-7.671c5.242,-5.242 7.863,-11.635 7.863,-19.178c0,-7.415 -2.685,-13.744 -8.055,-18.986c-5.241,-5.242 -11.57,-7.863 -18.985,-7.863c-7.288,0 -13.681,2.621 -19.178,7.863c-5.37,5.242 -8.055,11.571 -8.055,18.986Z" style="fill-rule:nonzero;"/><path d="M1374.4,324.743c-0,-19.945 4.922,-36.374 14.767,-49.287c9.844,-12.913 22.501,-19.369 37.971,-19.369c15.47,-0 28.128,6.52 37.972,19.561c9.845,12.913 14.767,29.278 14.767,49.095c0,19.689 -4.922,36.118 -14.767,49.287c-9.844,12.913 -22.502,19.369 -37.972,19.369c-15.47,0 -28.127,-6.456 -37.971,-19.369c-9.845,-13.169 -14.767,-29.598 -14.767,-49.287Zm87.45,0c0,-15.086 -3.196,-27.488 -9.589,-37.205c-6.264,-9.717 -14.639,-14.575 -25.123,-14.575c-10.483,0 -18.858,4.858 -25.122,14.575c-6.393,9.717 -9.589,22.119 -9.589,37.205c-0,15.086 3.196,27.552 9.589,37.397c6.264,9.588 14.639,14.383 25.122,14.383c10.484,-0 18.859,-4.858 25.123,-14.575c6.393,-9.845 9.589,-22.246 9.589,-37.205Z" style="fill-rule:nonzero;"/></g></svg>