<svg xmlns="http://www.w3.org/2000/svg" xmlns:xlink="http://www.w3.org/1999/xlink" viewBox="0 0 1390.7 413" xml:space="preserve"><symbol id="a" viewBox="-20 -7.4 77.2 17.6"><path d="M-20 5.5V2.7c.5.4 1.1.8 1.7 1l1.8.3.9-.1.7-.3.4-.4.1-.5-.2-.7-.6-.5-.8-.5-1.1-.5c-1-.4-1.7-.9-2.2-1.5s-.7-1.3-.7-2.1c0-.7.1-1.2.4-1.7.3-.5.6-.9 1.1-1.2l1.6-.7a12.3 12.3 0 0 1 3.7-.1l1.4.4v2.6l-.7-.4-.8-.3-.8-.2-.7-.1-.9.1c-.3.1-.5.1-.7.3l-.4.4-.2.6.2.6.5.5.8.4 1 .4 1.4.7 1 .8.7 1c.2.4.2.8.2 1.3a3.4 3.4 0 0 1-1.5 3c-.5.3-1 .5-1.6.6l-1.9.2-2-.2c-.8 0-1.3-.2-1.8-.4zM-.8 6h-2.8V1C-3.5-.5-4-1.2-5-1.2c-.5 0-1 .2-1.2.6-.3.4-.5.8-.5 1.4V6h-2.8v-9h2.8v1.4a3.4 3.4 0 0 1 2.9-1.7c2 0 3 1.2 3 3.7V6zM9 6H6.3V4.7a3 3 0 0 1-2.7 1.5c-.9 0-1.6-.3-2.1-.7s-.8-1.2-.8-2c0-1.8 1-2.8 3.1-3L6.3.2c0-1-.5-1.5-1.6-1.5s-2.1.3-3.1 1v-2.1a5 5 0 0 1 1.6-.5L5-3.1C7.7-3.3 9-2 9 .6V6zM6.3 2.3v-.6l-1.6.2c-.9.1-1.4.5-1.4 1.2 0 .3.1.6.3.8s.5.3.9.3c.5 0 1-.2 1.3-.5s.5-.8.5-1.4zM14 4.9v5.2h-2.8V-3.1H14v1.4a3.3 3.3 0 0 1 2.9-1.6c1.2 0 2.1.4 2.7 1.2s1 1.9 1 3.3c0 1.5-.4 2.7-1.1 3.6s-1.7 1.4-3 1.4c-1.1 0-1.9-.4-2.5-1.3zm-.1-3.7V2c0 .6.2 1.1.5 1.5.3.4.8.6 1.3.6.6 0 1.1-.2 1.5-.7s.5-1.2.5-2.1c0-1.6-.6-2.4-1.9-2.4-.5 0-1.1.2-1.4.6-.3.4-.5 1-.5 1.7zm15.4 4.5c-.6.4-1.5.5-2.7.5-1.4 0-2.5-.4-3.4-1.3S21.9 3 21.9 1.7c0-1.5.5-2.8 1.4-3.6s2.2-1.3 3.7-1.3c1.1 0 1.8.1 2.3.4v2.4c-.6-.4-1.2-.7-2-.7s-1.4.2-1.9.7-.7 1.1-.7 1.9c0 .8.2 1.4.7 1.9s1.1.7 1.8.7a3 3 0 0 0 2-.7l.1 2.3zm10.5.3H37V.8c0-1.3-.5-2-1.4-2-.5 0-.9.2-1.2.6-.3.4-.5.8-.5 1.4V6h-2.8V-7.4h2.8v5.7c.7-1 1.6-1.6 2.8-1.6 2.1 0 3.1 1.2 3.1 3.7V6zm9.7 0h-2.6V4.7a3 3 0 0 1-2.7 1.5c-.9 0-1.6-.3-2.1-.7s-.8-1.2-.8-2c0-1.8 1-2.8 3.1-3l2.5-.3c0-1-.5-1.5-1.6-1.5s-2.1.3-3.1 1v-2.1a5 5 0 0 1 1.6-.5l1.8-.2c2.6 0 3.9 1.3 3.9 3.9V6zm-2.6-3.7v-.6l-1.6.2c-.9.1-1.4.5-1.4 1.2 0 .3.1.6.3.8s.5.3.9.3c.5 0 .9-.2 1.3-.5s.5-.8.5-1.4zm10.3 3.6c-.4.2-1 .3-1.9.3-2 0-2.9-1-2.9-3.1V-1h-1.5v-2.1h1.5v-2l2.8-.8v2.7h2V-1h-2v3.7c0 .9.4 1.4 1.1 1.4l.9-.3v2.1z" fill="#303030"/></symbol><use xlink:href="#a" width="77.2" height="17.6" x="-20" y="-7.4" transform="translate(700.3 202.3) scale(12.0485)" overflow="visible"/><path d="M0 307.9c.2 9.2.3 18.4 1.9 27.5 1.6 9.6 4 19.1 8.4 27.8a88.7 88.7 0 0 0 49.6 43.5c13.3 4.3 26.9 5.9 40.8 6 8.7.1 17.3.3 26 .2 62.9-.3 125.8.5 188.8-.4 8.4-.1 16.6-1.1 24.7-2.6a86.5 86.5 0 0 0 68.9-65.9c2.7-11.9 3.4-24 3.6-36.1v-2.4l-.4-208.9c-.1-7.5-.6-14.9-2-22.2a90.1 90.1 0 0 0-8.4-25.7 89.4 89.4 0 0 0-54.7-44.3C334.2.9 320.9.2 307.6.2l-.1-.2H105.1v.2c-7.6.1-15.2.1-22.7 1-8.3 1-16.5 2.6-24.3 5.5A86.3 86.3 0 0 0 4.4 65.5a149 149 0 0 0-4.2 39.3" fill="#fffc00"/><path d="m208.2 348.4-2.3-.1-1.5.1c-18 0-30.1-8.5-40.7-16a59.8 59.8 0 0 0-23.2-11.9c-4.1-.7-8.2-1-12.2-1-7.2 0-12.8 1.1-16.9 1.9a36 36 0 0 1-6.4.9c-1.8 0-3.9-.4-4.8-3.5-.7-2.4-1.2-4.8-1.7-7-1.2-5.6-2.1-9.1-4.2-9.4-22.6-3.5-35.9-8.6-38.6-14.8-.3-.7-.5-1.3-.5-1.9a3.7 3.7 0 0 1 3-3.8 79 79 0 0 0 47.4-28.2c10.5-12.2 15.6-23.8 16.2-25.1l.1-.2c2.6-5.3 3.1-9.9 1.6-13.6-2.9-6.9-12.6-9.9-18.9-11.9l-4.3-1.5c-5.7-2.2-15-6.9-13.7-13.5.9-4.8 7.2-8.1 12.3-8.1 1.4 0 2.7.2 3.7.7a37 37 0 0 0 15.3 4.1c5.5 0 8.2-2.1 8.8-2.7l-.6-9c-1.3-20.6-2.9-46.2 3.6-61a79.4 79.4 0 0 1 73.6-47.5h6c12.3 0 54 3.4 73.7 47.5 6.6 14.7 4.9 40.4 3.6 61l-.1 1-.5 8c.6.6 3.1 2.5 8 2.7 4.2-.2 9.1-1.5 14.4-4a11 11 0 0 1 4.7-.9c1.9 0 3.8.4 5.4 1h.1c4.5 1.6 7.5 4.8 7.6 8.2.1 3.2-2.3 7.9-13.8 12.4l-4.3 1.5c-6.4 2-16 5.1-18.9 11.9-1.6 3.7-1.1 8.3 1.6 13.6l.1.2c.8 1.9 20.2 46.2 63.6 53.3 1.8.3 3.1 1.9 3 3.8a5 5 0 0 1-.5 2c-2.6 6.2-16 11.3-38.6 14.8-2.1.3-3 3.7-4.2 9.4-.5 2.3-1 4.6-1.7 7-.7 2.3-2.1 3.3-4.5 3.3h-.3c-1.5 0-3.7-.3-6.4-.8a86.6 86.6 0 0 0-29.1-.8c-8.4 1.4-15.6 6.5-23.2 11.8-10.8 7.6-22.8 16.1-40.8 16.1" fill="#fff"/><path d="M209.3 68.1c11.6 0 51.5 3.1 70.4 45.3 6.2 13.9 4.6 39.1 3.3 59.3l-.6 9.3-.1 1.3.9.9c.3.4 3.6 3.7 10.7 4h.2c4.8-.2 10.1-1.7 15.9-4.4a8 8 0 0 1 3.2-.6 9 9 0 0 1 4 .8l.2.1c3.1 1.1 5.2 3.1 5.2 4.9 0 1-.8 4.7-11.5 9l-4.1 1.4c-7 2.2-17.6 5.6-21.2 14-2 4.7-1.5 10.3 1.6 16.6 1.3 3 21.3 48 66.3 55.5l-.2.7c-.8 1.8-5.6 8-35.8 12.7-4.7.7-5.9 6-7.2 12.2-.5 2.2-1 4.4-1.7 6.7-.2.7-.2.7-1 .7h-.3c-1.4 0-3.4-.3-5.7-.7-4.3-.8-10.1-1.9-17.6-1.9a70 70 0 0 0-12.8 1.1 59.7 59.7 0 0 0-24.7 12.5c-10.7 7.6-21.7 15.4-38.6 15.4l-2.2-.1h-.3l-1.2.1c-16.8 0-27.9-7.8-38.6-15.4a62.2 62.2 0 0 0-24.7-12.5 80 80 0 0 0-30.4.9c-2.4.5-4.4.9-5.7.9-1.1 0-1.1-.1-1.4-.9-.7-2.3-1.2-4.6-1.7-6.8-1.4-6.2-2.5-11.5-7.2-12.2-30.2-4.7-35.1-10.9-35.8-12.7l-.2-.7c45.1-7.4 65.1-52.5 66.4-55.5 3.1-6.3 3.6-11.9 1.6-16.6-3.6-8.4-14.2-11.8-21.2-14-1.6-.5-3-.9-4.1-1.4-9.1-3.6-11.9-7.2-11.5-9.4.5-2.5 4.9-5.1 8.7-5.1.9 0 1.6.1 2.2.4a40.8 40.8 0 0 0 16.9 4.4c7.8 0 11.3-3.6 11.7-4.1l.8-.9-.1-1.3-.6-9.3c-1.3-20.2-2.8-45.4 3.3-59.3a75.5 75.5 0 0 1 70.3-45.3l5.4-.1.8.1m0-7.3h-.8l-5.3.1c-6.9 0-20.6 1-35.4 7.5a80.2 80.2 0 0 0-41.4 42.1c-6.9 15.5-5.3 41.7-4 62.7l.4 6.9c-1 .5-2.7 1-5.1 1-3.9 0-8.5-1.2-13.8-3.7-1.5-.7-3.3-1.1-5.2-1.1-3.1 0-6.4.9-9.3 2.6a13.1 13.1 0 0 0-6.6 8.4c-.4 2.2-.4 6.5 4.4 10.9a36 36 0 0 0 11.5 6.6l4.5 1.5c5.7 1.8 14.4 4.6 16.7 9.9 1.1 2.7.7 6.2-1.5 10.6l-.2.3A99.7 99.7 0 0 1 83.9 268a68.7 68.7 0 0 1-26.4 10.3 7.4 7.4 0 0 0-6.1 7.6c.1 1.1.3 2.1.8 3.2 1.5 3.5 4.9 6.4 10.5 9 6.8 3.2 17 5.8 30.3 7.9.7 1.3 1.4 4.5 1.8 6.7.5 2.3 1 4.7 1.8 7.3a8 8 0 0 0 8.3 6.1c2 0 4.4-.5 7.1-1a79.2 79.2 0 0 1 27.8-.8c7.6 1.2 14.1 5.9 21.7 11.2 11.1 7.8 23.6 16.7 42.8 16.7l1.6-.1 2.3.1c19.2 0 31.7-8.9 42.8-16.7 7.6-5.3 14.1-10 21.7-11.2a79.7 79.7 0 0 1 27.8.7c3 .6 5.3.9 7.1.9h.3c4 0 6.8-2.2 7.9-6l1.8-7.2c.5-2 1.2-5.3 1.8-6.6 13.3-2.1 23.5-4.8 30.3-7.9 5.6-2.6 9-5.5 10.5-9 .5-1 .7-2.1.8-3.2.2-3.7-2.4-7-6.1-7.6-41.4-6.8-60-49.4-60.8-51.2l-.2-.3c-2.1-4.3-2.6-7.8-1.5-10.6 2.3-5.3 10.9-8.1 16.7-9.9l4.5-1.5c5.7-2.2 9.7-4.7 12.4-7.4 3.2-3.3 3.8-6.4 3.7-8.5-.1-5-3.9-9.4-9.9-11.6-2-.8-4.4-1.3-6.7-1.3-1.6 0-4 .2-6.3 1.3a35.6 35.6 0 0 1-12.9 3.7c-2-.1-3.4-.5-4.3-.9l.4-6 .1-.9c1.3-21 3-47.2-4-62.7a81.5 81.5 0 0 0-41.7-42.2 86.7 86.7 0 0 0-35.1-7.6" fill="#020202"/><path d="M0 0h412.7v412.7H0V0z" fill="none"/></svg>